# xmcd
#
# Track frame offsets: 
#        151
#        13482
#        25330
#        37077
#        50945
#        65687
#        79238
#        91949
#        106131
#        119584
#        134000
#        148887
#        163742
#        176932
#        189437
#        204840
#        218026
#        230650
#
# Disc length: 3265 seconds
#
# Revision: 1
# Processed by: cddbd v1.5.2PL0 Copyright (c) Steve Scherf et al.
# Submitted via: ExactAudioCopy v0.95b2
#
DISCID=1a0cbf12
DTITLE=Charley Jordan - The Essential Charley Jordan Disc1
DYEAR=2002
DGENRE=Blues
TTITLE0=Hunkie Tunkie Blues
TTITLE1=Stack O Dollars Blues
TTITLE2=Just A Spoonful
TTITLE3=Pork Chop Blues
TTITLE4=Long Lonesome Drive
TTITLE5=Two Street Blues
TTITLE6=My Loving Good Blues
TTITLE7=Titanic Blues
TTITLE8=Bad Breaks Blues
TTITLE9=Bad Feeling Blues
TTITLE10=Honey Sucker Blues
TTITLE11=The Last Dime
TTITLE12=Nut Factory Blues
TTITLE13=Raiding Squad Blues
TTITLE14=Christmas Christmas Blues
TTITLE15=Dollar Bill Blues
TTITLE16=Got Your Water On
TTITLE17=Tight Time Blues
EXTD=YEAR: 2002
EXTT0=
EXTT1=
EXTT2=
EXTT3=
EXTT4=
EXTT5=
EXTT6=
EXTT7=
EXTT8=
EXTT9=
EXTT10=
EXTT11=
EXTT12=
EXTT13=
EXTT14=
EXTT15=
EXTT16=
EXTT17=
PLAYORDER=
